<?xml version="1.0" encoding="UTF-8" standalone="no"?>
<svg width="375" height="812" viewBox="0 0 375 812" fill="none" xmlns="http://www.w3.org/2000/svg">
  <!-- Background -->
  <rect width="375" height="812" fill="#121212"/>
  
  <!-- Status Bar -->
  <rect x="0" y="0" width="375" height="44" fill="#121212"/>
  <text x="30" y="25" font-family="SF Pro Text, Roboto, sans-serif" font-size="14" fill="white">9:41</text>
  <text x="320" y="25" font-family="SF Pro Text, Roboto, sans-serif" font-size="14" fill="white">100%</text>
  
  <!-- Header with Back Button -->
  <circle cx="30" cy="80" r="20" fill="#1E1E1E"/>
  <text x="30" y="85" font-family="SF Pro Display, Roboto, sans-serif" font-size="16" fill="#AAAAAA" text-anchor="middle">←</text>
  <text x="187.5" y="85" font-family="SF Pro Display, Roboto, sans-serif" font-size="20" font-weight="bold" fill="white" text-anchor="middle">Music Services</text>
  
  <!-- Connected Services Section -->
  <text x="30" y="140" font-family="SF Pro Display, Roboto, sans-serif" font-size="18" font-weight="bold" fill="white">Connected Services</text>
  
  <!-- Spotify -->
  <rect x="20" y="160" width="335" height="100" rx="10" fill="#1E1E1E"/>
  <circle cx="60" cy="210" r="30" fill="#1DB954"/>
  <text x="60" y="220" font-family="SF Pro Display, Roboto, sans-serif" font-size="20" fill="white" text-anchor="middle">S</text>
  <text x="120" y="195" font-family="SF Pro Display, Roboto, sans-serif" font-size="18" font-weight="bold" fill="white">Spotify</text>
  <text x="120" y="225" font-family="SF Pro Text, Roboto, sans-serif" font-size="14" fill="#AAAAAA">Connected as john.doe@example.com</text>
  <rect x="285" y="195" width="50" height="30" rx="15" fill="#06D6A0"/>
  <text x="310" y="215" font-family="SF Pro Text, Roboto, sans-serif" font-size="12" fill="white" text-anchor="middle">ON</text>
  
  <!-- Apple Music -->
  <rect x="20" y="270" width="335" height="100" rx="10" fill="#1E1E1E"/>
  <circle cx="60" cy="320" r="30" fill="#FC3C44"/>
  <text x="60" y="330" font-family="SF Pro Display, Roboto, sans-serif" font-size="20" fill="white" text-anchor="middle">A</text>
  <text x="120" y="305" font-family="SF Pro Display, Roboto, sans-serif" font-size="18" font-weight="bold" fill="white">Apple Music</text>
  <text x="120" y="335" font-family="SF Pro Text, Roboto, sans-serif" font-size="14" fill="#AAAAAA">Connected as john.doe@example.com</text>
  <rect x="285" y="305" width="50" height="30" rx="15" fill="#06D6A0"/>
  <text x="310" y="325" font-family="SF Pro Text, Roboto, sans-serif" font-size="12" fill="white" text-anchor="middle">ON</text>
  
  <!-- Sync Settings Section -->
  <text x="30" y="410" font-family="SF Pro Display, Roboto, sans-serif" font-size="18" font-weight="bold" fill="white">Sync Settings</text>
  
  <!-- Sync Options -->
  <rect x="20" y="430" width="335" height="60" rx="10" fill="#1E1E1E"/>
  <text x="50" y="465" font-family="SF Pro Text, Roboto, sans-serif" font-size="16" fill="white">Sync playlists automatically</text>
  <rect x="285" y="445" width="50" height="30" rx="15" fill="#06D6A0"/>
  <text x="310" y="465" font-family="SF Pro Text, Roboto, sans-serif" font-size="12" fill="white" text-anchor="middle">ON</text>
  
  <rect x="20" y="500" width="335" height="60" rx="10" fill="#1E1E1E"/>
  <text x="50" y="535" font-family="SF Pro Text, Roboto, sans-serif" font-size="16" fill="white">Download for offline listening</text>
  <rect x="285" y="515" width="50" height="30" rx="15" fill="#2A2A2A"/>
  <text x="310" y="535" font-family="SF Pro Text, Roboto, sans-serif" font-size="12" fill="#AAAAAA" text-anchor="middle">OFF</text>
  
  <rect x="20" y="570" width="335" height="60" rx="10" fill="#1E1E1E"/>
  <text x="50" y="605" font-family="SF Pro Text, Roboto, sans-serif" font-size="16" fill="white">High quality streaming</text>
  <rect x="285" y="585" width="50" height="30" rx="15" fill="#06D6A0"/>
  <text x="310" y="605" font-family="SF Pro Text, Roboto, sans-serif" font-size="12" fill="white" text-anchor="middle">ON</text>
  
  <!-- Add Service Button -->
  <rect x="20" y="670" width="335" height="60" rx="10" fill="#8A4FBD"/>
  <text x="187.5" y="705" font-family="SF Pro Display, Roboto, sans-serif" font-size="16" font-weight="bold" fill="white" text-anchor="middle">Connect Another Service</text>
  
  <!-- Save Button -->
  <rect x="62.5" y="760" width="250" height="56" rx="28" fill="#1E1E1E"/>
  <text x="187.5" y="795" font-family="SF Pro Text, Roboto, sans-serif" font-size="18" font-weight="medium" fill="white" text-anchor="middle">Save Changes</text>
</svg>
