<?xml version="1.0" encoding="UTF-8" standalone="no"?>
<svg width="375" height="812" viewBox="0 0 375 812" fill="none" xmlns="http://www.w3.org/2000/svg">
  <!-- Background -->
  <rect width="375" height="812" fill="#121212"/>
  
  <!-- Status Bar -->
  <rect x="0" y="0" width="375" height="44" fill="#121212"/>
  <text x="30" y="25" font-family="SF Pro Text, Roboto, sans-serif" font-size="14" fill="white">9:41</text>
  <text x="320" y="25" font-family="SF Pro Text, Roboto, sans-serif" font-size="14" fill="white">100%</text>
  
  <!-- Header with Back Button -->
  <circle cx="30" cy="80" r="20" fill="#1E1E1E"/>
  <text x="30" y="85" font-family="SF Pro Display, Roboto, sans-serif" font-size="16" fill="#AAAAAA" text-anchor="middle">←</text>
  <text x="187.5" y="85" font-family="SF Pro Display, Roboto, sans-serif" font-size="20" font-weight="bold" fill="white" text-anchor="middle">Preferences</text>
  
  <!-- Music Preferences Section -->
  <text x="30" y="140" font-family="SF Pro Display, Roboto, sans-serif" font-size="18" font-weight="bold" fill="white">Music Preferences</text>
  
  <!-- Favorite Genres -->
  <text x="30" y="180" font-family="SF Pro Text, Roboto, sans-serif" font-size="16" fill="#AAAAAA">Favorite Genres</text>
  
  <!-- Genre Chips -->
  <rect x="30" y="200" width="80" height="36" rx="18" fill="#8A4FBD"/>
  <text x="70" y="223" font-family="SF Pro Text, Roboto, sans-serif" font-size="14" fill="white" text-anchor="middle">Pop</text>
  
  <rect x="120" y="200" width="80" height="36" rx="18" fill="#8A4FBD"/>
  <text x="160" y="223" font-family="SF Pro Text, Roboto, sans-serif" font-size="14" fill="white" text-anchor="middle">Rock</text>
  
  <rect x="210" y="200" width="80" height="36" rx="18" fill="#1E1E1E"/>
  <text x="250" y="223" font-family="SF Pro Text, Roboto, sans-serif" font-size="14" fill="#AAAAAA" text-anchor="middle">Jazz</text>
  
  <rect x="30" y="246" width="100" height="36" rx="18" fill="#8A4FBD"/>
  <text x="80" y="269" font-family="SF Pro Text, Roboto, sans-serif" font-size="14" fill="white" text-anchor="middle">Electronic</text>
  
  <rect x="140" y="246" width="80" height="36" rx="18" fill="#1E1E1E"/>
  <text x="180" y="269" font-family="SF Pro Text, Roboto, sans-serif" font-size="14" fill="#AAAAAA" text-anchor="middle">Hip Hop</text>
  
  <!-- Mood-Based Recommendations -->
  <text x="30" y="320" font-family="SF Pro Text, Roboto, sans-serif" font-size="16" fill="#AAAAAA">Mood-Based Recommendations</text>
  
  <!-- Toggle Switch -->
  <rect x="30" y="340" width="315" height="50" rx="10" fill="#1E1E1E"/>
  <text x="50" y="370" font-family="SF Pro Text, Roboto, sans-serif" font-size="16" fill="white">Enable mood detection</text>
  <rect x="285" y="350" width="40" height="24" rx="12" fill="#8A4FBD"/>
  <circle cx="315" cy="362" r="10" fill="white"/>
  
  <!-- Podcast Preferences Section -->
  <text x="30" y="430" font-family="SF Pro Display, Roboto, sans-serif" font-size="18" font-weight="bold" fill="white">Podcast Preferences</text>
  
  <!-- Favorite Categories -->
  <text x="30" y="470" font-family="SF Pro Text, Roboto, sans-serif" font-size="16" fill="#AAAAAA">Favorite Categories</text>
  
  <!-- Category Chips -->
  <rect x="30" y="490" width="100" height="36" rx="18" fill="#8A4FBD"/>
  <text x="80" y="513" font-family="SF Pro Text, Roboto, sans-serif" font-size="14" fill="white" text-anchor="middle">Comedy</text>
  
  <rect x="140" y="490" width="120" height="36" rx="18" fill="#8A4FBD"/>
  <text x="200" y="513" font-family="SF Pro Text, Roboto, sans-serif" font-size="14" fill="white" text-anchor="middle">Technology</text>
  
  <rect x="30" y="536" width="100" height="36" rx="18" fill="#1E1E1E"/>
  <text x="80" y="559" font-family="SF Pro Text, Roboto, sans-serif" font-size="14" fill="#AAAAAA" text-anchor="middle">Science</text>
  
  <rect x="140" y="536" width="100" height="36" rx="18" fill="#1E1E1E"/>
  <text x="190" y="559" font-family="SF Pro Text, Roboto, sans-serif" font-size="14" fill="#AAAAAA" text-anchor="middle">Business</text>
  
  <!-- App Settings Section -->
  <text x="30" y="610" font-family="SF Pro Display, Roboto, sans-serif" font-size="18" font-weight="bold" fill="white">App Settings</text>
  
  <!-- Dark Mode -->
  <rect x="30" y="630" width="315" height="50" rx="10" fill="#1E1E1E"/>
  <text x="50" y="660" font-family="SF Pro Text, Roboto, sans-serif" font-size="16" fill="white">Dark Mode</text>
  <rect x="285" y="640" width="40" height="24" rx="12" fill="#8A4FBD"/>
  <circle cx="315" cy="652" r="10" fill="white"/>
  
  <!-- Notifications -->
  <rect x="30" y="690" width="315" height="50" rx="10" fill="#1E1E1E"/>
  <text x="50" y="720" font-family="SF Pro Text, Roboto, sans-serif" font-size="16" fill="white">Notifications</text>
  <rect x="285" y="700" width="40" height="24" rx="12" fill="#8A4FBD"/>
  <circle cx="315" cy="712" r="10" fill="white"/>
  
  <!-- Save Button -->
  <rect x="62.5" y="760" width="250" height="56" rx="28" fill="#8A4FBD"/>
  <text x="187.5" y="795" font-family="SF Pro Text, Roboto, sans-serif" font-size="18" font-weight="medium" fill="white" text-anchor="middle">Save Preferences</text>
</svg>
